<?xml version="1.0" encoding="utf-8" standalone="no"?>
<!DOCTYPE svg PUBLIC "-//W3C//DTD SVG 1.1//EN"
  "http://www.w3.org/Graphics/SVG/1.1/DTD/svg11.dtd">
<svg xmlns:xlink="http://www.w3.org/1999/xlink" width="706.32875pt" height="238.322266pt" viewBox="0 0 706.32875 238.322266" xmlns="http://www.w3.org/2000/svg" version="1.1" xmlns:c2pa="http://c2pa.org/manifest">
 <metadata><c2pa:manifest>AAAWgmp1bWIAAAAeanVtZGMycGEAEQAQgAAAqgA4m3EDYzJwYQAAABZcanVtYgAAAEdqdW1kYzJtYQARABCAAACqADibcQN1cm46YzJwYTpmY2M1OTFmNS1hOTI2LTQ1YTMtODAwZi1mY2Y1MGM5NmRiY2EAAAADl2p1bWIAAAApanVtZGMyYXMAEQAQgAAAqgA4m3EDYzJwYS5hc3NlcnRpb25zAAAAALxqdW1iAAAARGp1bWRjYm9yABEAEIAAAKoAOJtxE2MycGEuaW5ncmVkaWVudC52MwAAAAAYYzJzaNPxS/rr3zbBb5LL+LHEvS8AAABwY2JvcqNpZGM6Zm9ybWF0bWltYWdlL3N2Zyt4bWxqaW5zdGFuY2VJRHgseG1wOmlpZDo5ZDI1YjIyZC05NDZlLTQyOGYtOGZiMS0zNWYyNmNkYzUyZmFscmVsYXRpb25zaGlwaHBhcmVudE9mAAAB4mp1bWIAAABBanVtZGNib3IAEQAQgAAAqgA4m3ETYzJwYS5hY3Rpb25zLnYyAAAAABhjMnNoYwROIZ26HzcC2gZftgTO9gAAAZljYm9yomdhY3Rpb25zgqJmYWN0aW9ua2MycGEub3BlbmVkanBhcmFtZXRlcnOha2luZ3JlZGllbnRzgaJjdXJseC1zZWxmI2p1bWJmPWMycGEuYXNzZXJ0aW9ucy9jMnBhLmluZ3JlZGllbnQudjNkaGFzaFgg+dCl/tkwDsAINs0+62jeTkwMs4PUCNrUIsbjM70KqZWkZmFjdGlvbngdY29tLmFudGhyb3BpYy5jbGF1ZGUucHJvdmlkZWRqcGFyYW1ldGVyc6F4H2NvbS5hbnRocm9waWMub3JpZ2luLWNvbmZpZGVuY2VndW5rbm93bmtkZXNjcmlwdGlvbnhmQ2xhdWRlIHByb3ZpZGVkIHRoaXMgZmlsZSBhdCB0aGUgcmVxdWVzdCBvZiBhIHVzZXIgYW5kIG1heSBoYXZlIGNyZWF0ZWQgb3IgbW9kaWZpZWQgdGhlIGZpbGUgY29udGVudHMubXNvZnR3YXJlQWdlbnShZG5hbWVmQ2xhdWRlcmFsbEFjdGlvbnNJbmNsdWRlZPUAAADIanVtYgAAAEBqdW1kY2JvcgARABCAAACqADibcRNjMnBhLmhhc2guZGF0YQAAAAAYYzJzaOeIss0tMxTdZXpOixk0PrQAAACAY2JvcqVjYWxnZnNoYTI1NmNwYWRMAAAAAAAAAAAAAAAAZGhhc2hYIBczWfPOTl0yFsQWVABCPrZZW7ShV5AIvuvbYo2nBt3jZG5hbWVuanVtYmYgbWFuaWZlc3RqZXhjbHVzaW9uc4GiZXN0YXJ0GQGLZmxlbmd0aBkeBAAAAj5qdW1iAAAAJ2p1bWRjMmNsABEAEIAAAKoAOJtxA2MycGEuY2xhaW0udjIAAAACD2Nib3KlY2FsZ2ZzaGEyNTZpc2lnbmF0dXJleE1zZWxmI2p1bWJmPS9jMnBhL3VybjpjMnBhOmZjYzU5MWY1LWE5MjYtNDVhMy04MDBmLWZjZjUwYzk2ZGJjYS9jMnBhLnNpZ25hdHVyZWppbnN0YW5jZUlEeCx4bXA6aWlkOjNiZDIwZjUwLTZlNTUtNDc4OC05NzNiLTYwYzBjMThhN2I3OXJjcmVhdGVkX2Fzc2VydGlvbnODomN1cmx4LXNlbGYjanVtYmY9YzJwYS5hc3NlcnRpb25zL2MycGEuaW5ncmVkaWVudC52M2RoYXNoWCD50KX+2TAOwAg2zT7raN5OTAyzg9QI2tQixuMzvQqplaJjdXJseCpzZWxmI2p1bWJmPWMycGEuYXNzZXJ0aW9ucy9jMnBhLmFjdGlvbnMudjJkaGFzaFgggQK2OqOll8jlnPrNO8TSnAH90gzAZJjcLP0JA5TVFCWiY3VybHgpc2VsZiNqdW1iZj1jMnBhLmFzc2VydGlvbnMvYzJwYS5oYXNoLmRhdGFkaGFzaFggOhlbuk4Wtqhq5doR+6Te7ZQNtTkchrumhtqQnAa1n1p0Y2xhaW1fZ2VuZXJhdG9yX2luZm+jZG5hbWVvQW50aHJvcGljIEZpbGVzZ3ZlcnNpb25lMS4wLjBrc3BlY1ZlcnNpb25lMi40LjAAABA4anVtYgAAAChqdW1kYzJjcwARABCAAACqADibcQNjMnBhLnNpZ25hdHVyZQAAABAIY2JvctKEWQISogEmGCFZAgowggIGMIIBjaADAgECAhRA5aAK7sI50L64g/oGQgU9Z1UTADAKBggqhkjOPQQDAzBJMRcwFQYDVQQKEw5BbnRocm9waWMsIFBCQzEuMCwGA1UEAxMlQW50aHJvcGljIENvbnRlbnQgQ3JlZGVudGlhbHMgUm9vdCBDQTAeFw0yNjA4MDcxODQzNTZaFw0yODA4MDYxOTQzNTZaMEQxFzAVBgNVBAoTDkFudGhyb3BpYywgUEJDMSkwJwYDVQQDEyBBbnRocm9waWMgQ2xhdWRlIENvbnRlbnQgU2lnbmluZzBZMBMGByqGSM49AgEGCCqGSM49AwEHA0IABJh6CmvLUBgFFNU0vUKlOVtE6djd17L5SuwX0LemFisBM3dkd/3cyjxFA3Qo5S46fX0/ihY0VZ7mfb9KF703t5OjWDBWMA4GA1UdDwEB/wQEAwIHgDAVBgNVHSUEDjAMBgorBgEEAYPoXgIBMAwGA1UdEwEB/wQCMAAwHwYDVR0jBBgwFoAUzlHiBIFOZFsj+OPEz5o+nMHXXMIwCgYIKoZIzj0EAwMDZwAwZAIwMXMdFJ4BetLLVY7ORuE9noqbbAZOZn/aArXyTwFAZfKrPzxF2vPoJNf1+UCdg1XGAjBwX1zd9WGqYkqmL5SFqw1QySjr1zJfpJM9+1rdDwSPLMOPOjKuiXjoU/pUUeG9RwmhY3BhZFkNngAAAAAAAAAAAAAAAAAAAAAAAAAAAAAAAAAAAAAAAAAAAAAAAAAAAAAAAAAAAAAAAAAAAAAAAAAAAAAAAAAAAAAAAAAAAAAAAAAAAAAAAAAAAAAAAAAAAAAAAAAAAAAAAAAAAAAAAAAAAAAAAAAAAAAAAAAAAAAAAAAAAAAAAAAAAAAAAAAAAAAAAAAAAAAAAAAAAAAAAAAAAAAAAAAAAAAAAAAAAAAAAAAAAAAAAAAAAAAAAAAAAAAAAAAAAAAAAAAAAAAAAAAAAAAAAAAAAAAAAAAAAAAAAAAAAAAAAAAAAAAAAAAAAAAAAAAAAAAAAAAAAAAAAAAAAAAAAAAAAAAAAAAAAAAAAAAAAAAAAAAAAAAAAAAAAAAAAAAAAAAAAAAAAAAAAAAAAAAAAAAAAAAAAAAAAAAAAAAAAAAAAAAAAAAAAAAAAAAAAAAAAAAAAAAAAAAAAAAAAAAAAAAAAAAAAAAAAAAAAAAAAAAAAAAAAAAAAAAAAAAAAAAAAAAAAAAAAAAAAAAAAAAAAAAAAAAAAAAAAAAAAAAAAAAAAAAAAAAAAAAAAAAAAAAAAAAAAAAAAAAAAAAAAAAAAAAAAAAAAAAAAAAAAAAAAAAAAAAAAAAAAAAAAAAAAAAAAAAAAAAAAAAAAAAAAAAAAAAAAAAAAAAAAAAAAAAAAAAAAAAAAAAAAAAAAAAAAAAAAAAAAAAAAAAAAAAAAAAAAAAAAAAAAAAAAAAAAAAAAAAAAAAAAAAAAAAAAAAAAAAAAAAAAAAAAAAAAAAAAAAAAAAAAAAAAAAAAAAAAAAAAAAAAAAAAAAAAAAAAAAAAAAAAAAAAAAAAAAAAAAAAAAAAAAAAAAAAAAAAAAAAAAAAAAAAAAAAAAAAAAAAAAAAAAAAAAAAAAAAAAAAAAAAAAAAAAAAAAAAAAAAAAAAAAAAAAAAAAAAAAAAAAAAAAAAAAAAAAAAAAAAAAAAAAAAAAAAAAAAAAAAAAAAAAAAAAAAAAAAAAAAAAAAAAAAAAAAAAAAAAAAAAAAAAAAAAAAAAAAAAAAAAAAAAAAAAAAAAAAAAAAAAAAAAAAAAAAAAAAAAAAAAAAAAAAAAAAAAAAAAAAAAAAAAAAAAAAAAAAAAAAAAAAAAAAAAAAAAAAAAAAAAAAAAAAAAAAAAAAAAAAAAAAAAAAAAAAAAAAAAAAAAAAAAAAAAAAAAAAAAAAAAAAAAAAAAAAAAAAAAAAAAAAAAAAAAAAAAAAAAAAAAAAAAAAAAAAAAAAAAAAAAAAAAAAAAAAAAAAAAAAAAAAAAAAAAAAAAAAAAAAAAAAAAAAAAAAAAAAAAAAAAAAAAAAAAAAAAAAAAAAAAAAAAAAAAAAAAAAAAAAAAAAAAAAAAAAAAAAAAAAAAAAAAAAAAAAAAAAAAAAAAAAAAAAAAAAAAAAAAAAAAAAAAAAAAAAAAAAAAAAAAAAAAAAAAAAAAAAAAAAAAAAAAAAAAAAAAAAAAAAAAAAAAAAAAAAAAAAAAAAAAAAAAAAAAAAAAAAAAAAAAAAAAAAAAAAAAAAAAAAAAAAAAAAAAAAAAAAAAAAAAAAAAAAAAAAAAAAAAAAAAAAAAAAAAAAAAAAAAAAAAAAAAAAAAAAAAAAAAAAAAAAAAAAAAAAAAAAAAAAAAAAAAAAAAAAAAAAAAAAAAAAAAAAAAAAAAAAAAAAAAAAAAAAAAAAAAAAAAAAAAAAAAAAAAAAAAAAAAAAAAAAAAAAAAAAAAAAAAAAAAAAAAAAAAAAAAAAAAAAAAAAAAAAAAAAAAAAAAAAAAAAAAAAAAAAAAAAAAAAAAAAAAAAAAAAAAAAAAAAAAAAAAAAAAAAAAAAAAAAAAAAAAAAAAAAAAAAAAAAAAAAAAAAAAAAAAAAAAAAAAAAAAAAAAAAAAAAAAAAAAAAAAAAAAAAAAAAAAAAAAAAAAAAAAAAAAAAAAAAAAAAAAAAAAAAAAAAAAAAAAAAAAAAAAAAAAAAAAAAAAAAAAAAAAAAAAAAAAAAAAAAAAAAAAAAAAAAAAAAAAAAAAAAAAAAAAAAAAAAAAAAAAAAAAAAAAAAAAAAAAAAAAAAAAAAAAAAAAAAAAAAAAAAAAAAAAAAAAAAAAAAAAAAAAAAAAAAAAAAAAAAAAAAAAAAAAAAAAAAAAAAAAAAAAAAAAAAAAAAAAAAAAAAAAAAAAAAAAAAAAAAAAAAAAAAAAAAAAAAAAAAAAAAAAAAAAAAAAAAAAAAAAAAAAAAAAAAAAAAAAAAAAAAAAAAAAAAAAAAAAAAAAAAAAAAAAAAAAAAAAAAAAAAAAAAAAAAAAAAAAAAAAAAAAAAAAAAAAAAAAAAAAAAAAAAAAAAAAAAAAAAAAAAAAAAAAAAAAAAAAAAAAAAAAAAAAAAAAAAAAAAAAAAAAAAAAAAAAAAAAAAAAAAAAAAAAAAAAAAAAAAAAAAAAAAAAAAAAAAAAAAAAAAAAAAAAAAAAAAAAAAAAAAAAAAAAAAAAAAAAAAAAAAAAAAAAAAAAAAAAAAAAAAAAAAAAAAAAAAAAAAAAAAAAAAAAAAAAAAAAAAAAAAAAAAAAAAAAAAAAAAAAAAAAAAAAAAAAAAAAAAAAAAAAAAAAAAAAAAAAAAAAAAAAAAAAAAAAAAAAAAAAAAAAAAAAAAAAAAAAAAAAAAAAAAAAAAAAAAAAAAAAAAAAAAAAAAAAAAAAAAAAAAAAAAAAAAAAAAAAAAAAAAAAAAAAAAAAAAAAAAAAAAAAAAAAAAAAAAAAAAAAAAAAAAAAAAAAAAAAAAAAAAAAAAAAAAAAAAAAAAAAAAAAAAAAAAAAAAAAAAAAAAAAAAAAAAAAAAAAAAAAAAAAAAAAAAAAAAAAAAAAAAAAAAAAAAAAAAAAAAAAAAAAAAAAAAAAAAAAAAAAAAAAAAAAAAAAAAAAAAAAAAAAAAAAAAAAAAAAAAAAAAAAAAAAAAAAAAAAAAAAAAAAAAAAAAAAAAAAAAAAAAAAAAAAAAAAAAAAAAAAAAAAAAAAAAAAAAAAAAAAAAAAAAAAAAAAAAAAAAAAAAAAAAAAAAAAAAAAAAAAAAAAAAAAAAAAAAAAAAAAAAAAAAAAAAAAAAAAAAAAAAAAAAAAAAAAAAAAAAAAAAAAAAAAAAAAAAAAAAAAAAAAAAAAAAAAAAAAAAAAAAAAAAAAAAAAAAAAAAAAAAAAAAAAAAAAAAAAAAAAAAAAAAAAAAAAAAAAAAAAAAAAAAAAAAAAAAAAAAAAAAAAAAAAAAAAAAAAAAAAAAAAAAAAAAAAAAAAAAAAAAAAAAAAAAAAAAAAAAAAAAAAAAAAAAAAAAAAAAAAAAAAAAAAAAAAAAAAAAAAAAAAAAAAAAAAAAAAAAAAAAAAAAAAAAAAAAAAAAAAAAAAAAAAAAAAAAAAAAAAAAAAAAAAAAAAAAAAAAAAAAAAAAAAAAAAAAAAAAAAAAAAAAAAAAAAAAAAAAAAAAAAAAAAAAAAAAAAAAAAAAAAAAAAAAAAAAAAAAAAAAAAAAAAAAAAAAAAAAAAAAAAAAAAAAAAAAAAAAAAAAAAAAAAAAAAAAAAAAAAAAAAAAAAAAAAAAAAAAAAAAAAAAAAAAAAAAAAAAAAAAAAAAAAAAAAAAAAAAAAAAAAAAAAAAAAAAAAAAAAAAAAAAAAAAAAAAAAAAAAAAAAAAAAAAAAAAAAAAAAAAAAAAAAAAAAAAAAAAAAAAAAAAAAAAAAAAAAAAAAAAAAAAAAAAAAAAAAAAAAAAAAAAAAAAAAAAAAAAAAAAAAAAAAAAAAAAAAAAAAAAAAAAAAAAAAAAAAAAAAAAAAAAAAAAAAAAAAAAAAAAAAAAAAAAAAAAAAAAAAAAAAAAAAAAAAAAAAAAAAAAAAAAAAAAAAAAAAAAAAAAAAAAAAAAAAAAAAAAAAAAAAAAAAAAAAAAAAAAAAAAAAAAAAAAAAAAAAAAAAAAAAAAAAAAAAAAAAAAAAAAAAAAAAAAAAAAAAAAAAAAAAAAAAAAAAAAAAAAAAAAAAAAAAAAAAAAAAAAAAAAAAAAAAAAAAAAAAAAAAAAAAAAAAAAAAAAAAAAAAAAAAAAAAAAAAAAAAAAAAAAAAAAAAAAAAAAAAAAAAAAAAAAAAAAAAAAAAAAAAAAAAAAAAAAAAAAAAAAAAAAAAAAAAAAAAAAAAAAAAAAAAAAAAAAAAAAAAAAAAAAAAAAAAAAAAAAAAAAAAAAAAAAAAAAAAAAAAAAAAAAAAAAAAAAAAAAAAAAAAAAAAAAAAAAAAAAAAAAAAAAAAAAAAAAAAAAAAAAAAAAAAAAAAAAAAAAAAAAAAAAAAAAAAAAAAAAAAAAAAAAAAAAAAAAAAAAAAAAAAAAAAAAAAAAAAAAAAAAAAAAAAAAAAAAAAAAAAAAAAAAAAAAAAAAAAAAAAAAAAAAAAAAAAAAAAAAAAAAAAAAAAAAAAAAAAAAAAAAAAAAAAAAAAAAAAAAAAAAAAAAAAAAAAAAAAAAAAAAAAAAAAAAAAAAAAAAAAAAAAAAAAAAAAAAAAAAAAAAAAAAAAAAAAAAAAAAAAAAAAAAAAAAAAAAAAAAAAAAAAAAAAAAAAAAAAAAAAAAAAAAAAAAAAAAAAAAAAAAAAAAAAAAAAAAAAAAAAAAAAAAAAAAAAAAAAAAAAAAAAAAAAAAAAAAAAAAAAAAPZYQAFDOfnjfMfxOoMssTQSUw+uwDrtU1QO0DpRMx64jQ7dDcxuCNai8TOFSomxKEj0M7SsJ3MuYbzeZMC2L34ix04=</c2pa:manifest>
  <rdf:RDF xmlns:dc="http://purl.org/dc/elements/1.1/" xmlns:cc="http://creativecommons.org/ns#" xmlns:rdf="http://www.w3.org/1999/02/22-rdf-syntax-ns#">
   <cc:Work>
    <dc:type rdf:resource="http://purl.org/dc/dcmitype/StillImage"/>
    <dc:date>2026-10-09T00:35:26.671211</dc:date>
    <dc:format>image/svg+xml</dc:format>
    <dc:creator>
     <cc:Agent>
      <dc:title>Matplotlib v3.11.2, https://matplotlib.org/</dc:title>
     </cc:Agent>
    </dc:creator>
   </cc:Work>
  </rdf:RDF>
 </metadata>
 <defs>
  <style type="text/css">*{stroke-linejoin: round; stroke-linecap: butt}</style>
 </defs>
 <g id="figure_1">
  <g id="patch_1">
   <path d="M 0 238.322266 
L 706.32875 238.322266 
L 706.32875 0 
L 0 0 
z
" style="fill: #ffffff"/>
  </g>
  <g id="axes_1">
   <g id="patch_2">
    <path d="M 48.7425 193.121172 
L 350.37625 193.121172 
L 350.37625 24.597656 
L 48.7425 24.597656 
z
" style="fill: #ffffff"/>
   </g>
   <g id="matplotlib.axis_1">
    <g id="xtick_1">
     <g id="line2d_1">
      <defs>
       <path id="mbf195e2ab2" d="M 0 0 
L 0 3.5 
" style="stroke: #000000; stroke-width: 0.8"/>
      </defs>
      <g>
       <use xlink:href="#mbf195e2ab2" x="48.7425" y="193.121172" style="stroke: #000000; stroke-width: 0.8"/>
      </g>
     </g>
     <g id="text_1">
      <!-- 50 -->
      <g transform="translate(40.47125 209.998125) scale(0.13 -0.13)">
       <defs>
        <path id="DejaVuSans-18" d="M 691 4666 
L 3169 4666 
L 3169 4134 
L 1269 4134 
L 1269 2991 
Q 1406 3038 1543 3061 
Q 1681 3084 1819 3084 
Q 2600 3084 3056 2656 
Q 3513 2228 3513 1497 
Q 3513 744 3044 326 
Q 2575 -91 1722 -91 
Q 1428 -91 1123 -41 
Q 819 9 494 109 
L 494 744 
Q 775 591 1075 516 
Q 1375 441 1709 441 
Q 2250 441 2565 725 
Q 2881 1009 2881 1497 
Q 2881 1984 2565 2268 
Q 2250 2553 1709 2553 
Q 1456 2553 1204 2497 
Q 953 2441 691 2322 
L 691 4666 
z
" transform="scale(0.015625)"/>
        <path id="DejaVuSans-13" d="M 2034 4250 
Q 1547 4250 1301 3770 
Q 1056 3291 1056 2328 
Q 1056 1369 1301 889 
Q 1547 409 2034 409 
Q 2525 409 2770 889 
Q 3016 1369 3016 2328 
Q 3016 3291 2770 3770 
Q 2525 4250 2034 4250 
z
M 2034 4750 
Q 2819 4750 3233 4129 
Q 3647 3509 3647 2328 
Q 3647 1150 3233 529 
Q 2819 -91 2034 -91 
Q 1250 -91 836 529 
Q 422 1150 422 2328 
Q 422 3509 836 4129 
Q 1250 4750 2034 4750 
z
" transform="scale(0.015625)"/>
       </defs>
       <use xlink:href="#DejaVuSans-18"/>
       <use xlink:href="#DejaVuSans-13" transform="translate(63.625 0)"/>
      </g>
     </g>
    </g>
    <g id="xtick_2">
     <g id="line2d_2">
      <g>
       <use xlink:href="#mbf195e2ab2" x="99.014792" y="193.121172" style="stroke: #000000; stroke-width: 0.8"/>
      </g>
     </g>
     <g id="text_2">
      <!-- 75 -->
      <g transform="translate(90.743542 209.998125) scale(0.13 -0.13)">
       <defs>
        <path id="DejaVuSans-1a" d="M 525 4666 
L 3525 4666 
L 3525 4397 
L 1831 0 
L 1172 0 
L 2766 4134 
L 525 4134 
L 525 4666 
z
" transform="scale(0.015625)"/>
       </defs>
       <use xlink:href="#DejaVuSans-1a"/>
       <use xlink:href="#DejaVuSans-18" transform="translate(63.625 0)"/>
      </g>
     </g>
    </g>
    <g id="xtick_3">
     <g id="line2d_3">
      <g>
       <use xlink:href="#mbf195e2ab2" x="149.287083" y="193.121172" style="stroke: #000000; stroke-width: 0.8"/>
      </g>
     </g>
     <g id="text_3">
      <!-- 100 -->
      <g transform="translate(136.880208 209.998125) scale(0.13 -0.13)">
       <defs>
        <path id="DejaVuSans-14" d="M 794 531 
L 1825 531 
L 1825 4091 
L 703 3866 
L 703 4441 
L 1819 4666 
L 2450 4666 
L 2450 531 
L 3481 531 
L 3481 0 
L 794 0 
L 794 531 
z
" transform="scale(0.015625)"/>
       </defs>
       <use xlink:href="#DejaVuSans-14"/>
       <use xlink:href="#DejaVuSans-13" transform="translate(63.625 0)"/>
       <use xlink:href="#DejaVuSans-13" transform="translate(127.25 0)"/>
      </g>
     </g>
    </g>
    <g id="xtick_4">
     <g id="line2d_4">
      <g>
       <use xlink:href="#mbf195e2ab2" x="199.559375" y="193.121172" style="stroke: #000000; stroke-width: 0.8"/>
      </g>
     </g>
     <g id="text_4">
      <!-- 125 -->
      <g transform="translate(187.1525 209.998125) scale(0.13 -0.13)">
       <defs>
        <path id="DejaVuSans-15" d="M 1228 531 
L 3431 531 
L 3431 0 
L 469 0 
L 469 531 
Q 828 903 1448 1529 
Q 2069 2156 2228 2338 
Q 2531 2678 2651 2914 
Q 2772 3150 2772 3378 
Q 2772 3750 2511 3984 
Q 2250 4219 1831 4219 
Q 1534 4219 1204 4116 
Q 875 4013 500 3803 
L 500 4441 
Q 881 4594 1212 4672 
Q 1544 4750 1819 4750 
Q 2544 4750 2975 4387 
Q 3406 4025 3406 3419 
Q 3406 3131 3298 2873 
Q 3191 2616 2906 2266 
Q 2828 2175 2409 1742 
Q 1991 1309 1228 531 
z
" transform="scale(0.015625)"/>
       </defs>
       <use xlink:href="#DejaVuSans-14"/>
       <use xlink:href="#DejaVuSans-15" transform="translate(63.625 0)"/>
       <use xlink:href="#DejaVuSans-18" transform="translate(127.25 0)"/>
      </g>
     </g>
    </g>
    <g id="xtick_5">
     <g id="line2d_5">
      <g>
       <use xlink:href="#mbf195e2ab2" x="249.831667" y="193.121172" style="stroke: #000000; stroke-width: 0.8"/>
      </g>
     </g>
     <g id="text_5">
      <!-- 150 -->
      <g transform="translate(237.424792 209.998125) scale(0.13 -0.13)">
       <use xlink:href="#DejaVuSans-14"/>
       <use xlink:href="#DejaVuSans-18" transform="translate(63.625 0)"/>
       <use xlink:href="#DejaVuSans-13" transform="translate(127.25 0)"/>
      </g>
     </g>
    </g>
    <g id="xtick_6">
     <g id="line2d_6">
      <g>
       <use xlink:href="#mbf195e2ab2" x="300.103958" y="193.121172" style="stroke: #000000; stroke-width: 0.8"/>
      </g>
     </g>
     <g id="text_6">
      <!-- 175 -->
      <g transform="translate(287.697083 209.998125) scale(0.13 -0.13)">
       <use xlink:href="#DejaVuSans-14"/>
       <use xlink:href="#DejaVuSans-1a" transform="translate(63.625 0)"/>
       <use xlink:href="#DejaVuSans-18" transform="translate(127.25 0)"/>
      </g>
     </g>
    </g>
    <g id="xtick_7">
     <g id="line2d_7">
      <g>
       <use xlink:href="#mbf195e2ab2" x="350.37625" y="193.121172" style="stroke: #000000; stroke-width: 0.8"/>
      </g>
     </g>
     <g id="text_7">
      <!-- 200 -->
      <g transform="translate(337.969375 209.998125) scale(0.13 -0.13)">
       <use xlink:href="#DejaVuSans-15"/>
       <use xlink:href="#DejaVuSans-13" transform="translate(63.625 0)"/>
       <use xlink:href="#DejaVuSans-13" transform="translate(127.25 0)"/>
      </g>
     </g>
    </g>
    <g id="text_8">
     <!-- Horsepower (hp) -->
     <g transform="translate(140.977031 227.758984) scale(0.14 -0.14)">
      <defs>
       <path id="DejaVuSans-2b" d="M 628 4666 
L 1259 4666 
L 1259 2753 
L 3553 2753 
L 3553 4666 
L 4184 4666 
L 4184 0 
L 3553 0 
L 3553 2222 
L 1259 2222 
L 1259 0 
L 628 0 
L 628 4666 
z
" transform="scale(0.015625)"/>
       <path id="DejaVuSans-52" d="M 1959 3097 
Q 1497 3097 1228 2736 
Q 959 2375 959 1747 
Q 959 1119 1226 758 
Q 1494 397 1959 397 
Q 2419 397 2687 759 
Q 2956 1122 2956 1747 
Q 2956 2369 2687 2733 
Q 2419 3097 1959 3097 
z
M 1959 3584 
Q 2709 3584 3137 3096 
Q 3566 2609 3566 1747 
Q 3566 888 3137 398 
Q 2709 -91 1959 -91 
Q 1206 -91 779 398 
Q 353 888 353 1747 
Q 353 2609 779 3096 
Q 1206 3584 1959 3584 
z
" transform="scale(0.015625)"/>
       <path id="DejaVuSans-55" d="M 2631 2963 
Q 2534 3019 2420 3045 
Q 2306 3072 2169 3072 
Q 1681 3072 1420 2755 
Q 1159 2438 1159 1844 
L 1159 0 
L 581 0 
L 581 3500 
L 1159 3500 
L 1159 2956 
Q 1341 3275 1631 3429 
Q 1922 3584 2338 3584 
Q 2397 3584 2469 3576 
Q 2541 3569 2628 3553 
L 2631 2963 
z
" transform="scale(0.015625)"/>
       <path id="DejaVuSans-56" d="M 2834 3397 
L 2834 2853 
Q 2591 2978 2328 3040 
Q 2066 3103 1784 3103 
Q 1356 3103 1142 2972 
Q 928 2841 928 2578 
Q 928 2378 1081 2264 
Q 1234 2150 1697 2047 
L 1894 2003 
Q 2506 1872 2764 1633 
Q 3022 1394 3022 966 
Q 3022 478 2636 193 
Q 2250 -91 1575 -91 
Q 1294 -91 989 -36 
Q 684 19 347 128 
L 347 722 
Q 666 556 975 473 
Q 1284 391 1588 391 
Q 1994 391 2212 530 
Q 2431 669 2431 922 
Q 2431 1156 2273 1281 
Q 2116 1406 1581 1522 
L 1381 1569 
Q 847 1681 609 1914 
Q 372 2147 372 2553 
Q 372 3047 722 3315 
Q 1072 3584 1716 3584 
Q 2034 3584 2315 3537 
Q 2597 3491 2834 3397 
z
" transform="scale(0.015625)"/>
       <path id="DejaVuSans-48" d="M 3597 1894 
L 3597 1613 
L 953 1613 
Q 991 1019 1311 708 
Q 1631 397 2203 397 
Q 2534 397 2845 478 
Q 3156 559 3463 722 
L 3463 178 
Q 3153 47 2828 -22 
Q 2503 -91 2169 -91 
Q 1331 -91 842 396 
Q 353 884 353 1716 
Q 353 2575 817 3079 
Q 1281 3584 2069 3584 
Q 2775 3584 3186 3129 
Q 3597 2675 3597 1894 
z
M 3022 2063 
Q 3016 2534 2758 2815 
Q 2500 3097 2075 3097 
Q 1594 3097 1305 2825 
Q 1016 2553 972 2059 
L 3022 2063 
z
" transform="scale(0.015625)"/>
       <path id="DejaVuSans-53" d="M 1159 525 
L 1159 -1331 
L 581 -1331 
L 581 3500 
L 1159 3500 
L 1159 2969 
Q 1341 3281 1617 3432 
Q 1894 3584 2278 3584 
Q 2916 3584 3314 3078 
Q 3713 2572 3713 1747 
Q 3713 922 3314 415 
Q 2916 -91 2278 -91 
Q 1894 -91 1617 61 
Q 1341 213 1159 525 
z
M 3116 1747 
Q 3116 2381 2855 2742 
Q 2594 3103 2138 3103 
Q 1681 3103 1420 2742 
Q 1159 2381 1159 1747 
Q 1159 1113 1420 752 
Q 1681 391 2138 391 
Q 2594 391 2855 752 
Q 3116 1113 3116 1747 
z
" transform="scale(0.015625)"/>
       <path id="DejaVuSans-5a" d="M 269 3500 
L 844 3500 
L 1563 769 
L 2278 3500 
L 2956 3500 
L 3675 769 
L 4391 3500 
L 4966 3500 
L 4050 0 
L 3372 0 
L 2619 2869 
L 1863 0 
L 1184 0 
L 269 3500 
z
" transform="scale(0.015625)"/>
       <path id="DejaVuSans-3" transform="scale(0.015625)"/>
       <path id="DejaVuSans-b" d="M 1984 4856 
Q 1566 4138 1362 3434 
Q 1159 2731 1159 2009 
Q 1159 1288 1364 580 
Q 1569 -128 1984 -844 
L 1484 -844 
Q 1016 -109 783 600 
Q 550 1309 550 2009 
Q 550 2706 781 3412 
Q 1013 4119 1484 4856 
L 1984 4856 
z
" transform="scale(0.015625)"/>
       <path id="DejaVuSans-4b" d="M 3513 2113 
L 3513 0 
L 2938 0 
L 2938 2094 
Q 2938 2591 2744 2837 
Q 2550 3084 2163 3084 
Q 1697 3084 1428 2787 
Q 1159 2491 1159 1978 
L 1159 0 
L 581 0 
L 581 4863 
L 1159 4863 
L 1159 2956 
Q 1366 3272 1645 3428 
Q 1925 3584 2291 3584 
Q 2894 3584 3203 3211 
Q 3513 2838 3513 2113 
z
" transform="scale(0.015625)"/>
       <path id="DejaVuSans-c" d="M 513 4856 
L 1013 4856 
Q 1481 4119 1714 3412 
Q 1947 2706 1947 2009 
Q 1947 1309 1714 600 
Q 1481 -109 1013 -844 
L 513 -844 
Q 928 -128 1133 580 
Q 1338 1288 1338 2009 
Q 1338 2731 1133 3434 
Q 928 4138 513 4856 
z
" transform="scale(0.015625)"/>
      </defs>
      <use xlink:href="#DejaVuSans-2b"/>
      <use xlink:href="#DejaVuSans-52" transform="translate(75.203125 0)"/>
      <use xlink:href="#DejaVuSans-55" transform="translate(136.390625 0)"/>
      <use xlink:href="#DejaVuSans-56" transform="translate(177.5 0)"/>
      <use xlink:href="#DejaVuSans-48" transform="translate(229.59375 0)"/>
      <use xlink:href="#DejaVuSans-53" transform="translate(291.125 0)"/>
      <use xlink:href="#DejaVuSans-52" transform="translate(354.609375 0)"/>
      <use xlink:href="#DejaVuSans-5a" transform="translate(415.796875 0)"/>
      <use xlink:href="#DejaVuSans-48" transform="translate(497.578125 0)"/>
      <use xlink:href="#DejaVuSans-55" transform="translate(559.109375 0)"/>
      <use xlink:href="#DejaVuSans-3" transform="translate(600.21875 0)"/>
      <use xlink:href="#DejaVuSans-b" transform="translate(632 0)"/>
      <use xlink:href="#DejaVuSans-4b" transform="translate(671.015625 0)"/>
      <use xlink:href="#DejaVuSans-53" transform="translate(734.390625 0)"/>
      <use xlink:href="#DejaVuSans-c" transform="translate(797.875 0)"/>
     </g>
    </g>
   </g>
   <g id="matplotlib.axis_2">
    <g id="ytick_1">
     <g id="line2d_8">
      <defs>
       <path id="m50f8372c84" d="M 0 0 
L -3.5 0 
" style="stroke: #000000; stroke-width: 0.8"/>
      </defs>
      <g>
       <use xlink:href="#m50f8372c84" x="48.7425" y="193.121172" style="stroke: #000000; stroke-width: 0.8"/>
      </g>
     </g>
     <g id="text_9">
      <!-- 10 -->
      <g transform="translate(25.2 198.059648) scale(0.13 -0.13)">
       <use xlink:href="#DejaVuSans-14"/>
       <use xlink:href="#DejaVuSans-13" transform="translate(63.625 0)"/>
      </g>
     </g>
    </g>
    <g id="ytick_2">
     <g id="line2d_9">
      <g>
       <use xlink:href="#m50f8372c84" x="48.7425" y="144.971596" style="stroke: #000000; stroke-width: 0.8"/>
      </g>
     </g>
     <g id="text_10">
      <!-- 20 -->
      <g transform="translate(25.2 149.910073) scale(0.13 -0.13)">
       <use xlink:href="#DejaVuSans-15"/>
       <use xlink:href="#DejaVuSans-13" transform="translate(63.625 0)"/>
      </g>
     </g>
    </g>
    <g id="ytick_3">
     <g id="line2d_10">
      <g>
       <use xlink:href="#m50f8372c84" x="48.7425" y="96.82202" style="stroke: #000000; stroke-width: 0.8"/>
      </g>
     </g>
     <g id="text_11">
      <!-- 30 -->
      <g transform="translate(25.2 101.760497) scale(0.13 -0.13)">
       <defs>
        <path id="DejaVuSans-16" d="M 2597 2516 
Q 3050 2419 3304 2112 
Q 3559 1806 3559 1356 
Q 3559 666 3084 287 
Q 2609 -91 1734 -91 
Q 1441 -91 1130 -33 
Q 819 25 488 141 
L 488 750 
Q 750 597 1062 519 
Q 1375 441 1716 441 
Q 2309 441 2620 675 
Q 2931 909 2931 1356 
Q 2931 1769 2642 2001 
Q 2353 2234 1838 2234 
L 1294 2234 
L 1294 2753 
L 1863 2753 
Q 2328 2753 2575 2939 
Q 2822 3125 2822 3475 
Q 2822 3834 2567 4026 
Q 2313 4219 1838 4219 
Q 1578 4219 1281 4162 
Q 984 4106 628 3988 
L 628 4550 
Q 988 4650 1302 4700 
Q 1616 4750 1894 4750 
Q 2613 4750 3031 4423 
Q 3450 4097 3450 3541 
Q 3450 3153 3228 2886 
Q 3006 2619 2597 2516 
z
" transform="scale(0.015625)"/>
       </defs>
       <use xlink:href="#DejaVuSans-16"/>
       <use xlink:href="#DejaVuSans-13" transform="translate(63.625 0)"/>
      </g>
     </g>
    </g>
    <g id="ytick_4">
     <g id="line2d_11">
      <g>
       <use xlink:href="#m50f8372c84" x="48.7425" y="48.672444" style="stroke: #000000; stroke-width: 0.8"/>
      </g>
     </g>
     <g id="text_12">
      <!-- 40 -->
      <g transform="translate(25.2 53.610921) scale(0.13 -0.13)">
       <defs>
        <path id="DejaVuSans-17" d="M 2419 4116 
L 825 1625 
L 2419 1625 
L 2419 4116 
z
M 2253 4666 
L 3047 4666 
L 3047 1625 
L 3713 1625 
L 3713 1100 
L 3047 1100 
L 3047 0 
L 2419 0 
L 2419 1100 
L 313 1100 
L 313 1709 
L 2253 4666 
z
" transform="scale(0.015625)"/>
       </defs>
       <use xlink:href="#DejaVuSans-17"/>
       <use xlink:href="#DejaVuSans-13" transform="translate(63.625 0)"/>
      </g>
     </g>
    </g>
    <g id="text_13">
     <!-- mpg -->
     <g transform="translate(17.836719 124.565664) rotate(-90) scale(0.14 -0.14)">
      <defs>
       <path id="DejaVuSans-50" d="M 3328 2828 
Q 3544 3216 3844 3400 
Q 4144 3584 4550 3584 
Q 5097 3584 5394 3201 
Q 5691 2819 5691 2113 
L 5691 0 
L 5113 0 
L 5113 2094 
Q 5113 2597 4934 2840 
Q 4756 3084 4391 3084 
Q 3944 3084 3684 2787 
Q 3425 2491 3425 1978 
L 3425 0 
L 2847 0 
L 2847 2094 
Q 2847 2600 2669 2842 
Q 2491 3084 2119 3084 
Q 1678 3084 1418 2786 
Q 1159 2488 1159 1978 
L 1159 0 
L 581 0 
L 581 3500 
L 1159 3500 
L 1159 2956 
Q 1356 3278 1631 3431 
Q 1906 3584 2284 3584 
Q 2666 3584 2933 3390 
Q 3200 3197 3328 2828 
z
" transform="scale(0.015625)"/>
       <path id="DejaVuSans-4a" d="M 2906 1791 
Q 2906 2416 2648 2759 
Q 2391 3103 1925 3103 
Q 1463 3103 1205 2759 
Q 947 2416 947 1791 
Q 947 1169 1205 825 
Q 1463 481 1925 481 
Q 2391 481 2648 825 
Q 2906 1169 2906 1791 
z
M 3481 434 
Q 3481 -459 3084 -895 
Q 2688 -1331 1869 -1331 
Q 1566 -1331 1297 -1286 
Q 1028 -1241 775 -1147 
L 775 -588 
Q 1028 -725 1275 -790 
Q 1522 -856 1778 -856 
Q 2344 -856 2625 -561 
Q 2906 -266 2906 331 
L 2906 616 
Q 2728 306 2450 153 
Q 2172 0 1784 0 
Q 1141 0 747 490 
Q 353 981 353 1791 
Q 353 2603 747 3093 
Q 1141 3584 1784 3584 
Q 2172 3584 2450 3431 
Q 2728 3278 2906 2969 
L 2906 3500 
L 3481 3500 
L 3481 434 
z
" transform="scale(0.015625)"/>
      </defs>
      <use xlink:href="#DejaVuSans-50"/>
      <use xlink:href="#DejaVuSans-53" transform="translate(97.40625 0)"/>
      <use xlink:href="#DejaVuSans-4a" transform="translate(160.890625 0)"/>
     </g>
    </g>
   </g>
   <g id="line2d_12">
    <path d="M 58.796958 93.210802 
L 340.321792 194.324911 
" clip-path="url(#pef91d16f7b)" style="fill: none; stroke: #00795a; stroke-width: 3; stroke-linecap: square"/>
   </g>
   <g id="line2d_13">
    <path d="M 169.396 151.712537 
L 169.396 132.934202 
" clip-path="url(#pef91d16f7b)" style="fill: none; stroke: #c84b00; stroke-width: 2.6; stroke-linecap: square"/>
   </g>
   <g id="line2d_14">
    <path d="M 133.19995 120.896808 
L 133.19995 119.933817 
" clip-path="url(#pef91d16f7b)" style="fill: none; stroke: #c84b00; stroke-width: 2.6; stroke-linecap: square"/>
   </g>
   <g id="line2d_15">
    <path d="M 143.254408 154.601511 
L 143.254408 123.545035 
" clip-path="url(#pef91d16f7b)" style="fill: none; stroke: #c84b00; stroke-width: 2.6; stroke-linecap: square"/>
   </g>
   <g id="line2d_16">
    <path d="M 249.831667 169.046384 
L 249.831667 161.823948 
" clip-path="url(#pef91d16f7b)" style="fill: none; stroke: #c84b00; stroke-width: 2.6; stroke-linecap: square"/>
   </g>
   <g id="line2d_17">
    <path d="M 76.894983 53.487402 
L 76.894983 99.710995 
" clip-path="url(#pef91d16f7b)" style="fill: none; stroke: #c84b00; stroke-width: 2.6; stroke-linecap: square"/>
   </g>
   <g id="line2d_18">
    <path d="M 330.267333 166.638905 
L 330.267333 190.713693 
" clip-path="url(#pef91d16f7b)" style="fill: none; stroke: #c84b00; stroke-width: 2.6; stroke-linecap: square"/>
   </g>
   <g id="line2d_19">
    <path d="M 72.8732 97.785012 
L 72.8732 98.266507 
" clip-path="url(#pef91d16f7b)" style="fill: none; stroke: #c84b00; stroke-width: 2.6; stroke-linecap: square"/>
   </g>
   <g id="line2d_20">
    <path d="M 169.396 120.896808 
L 169.396 132.934202 
" clip-path="url(#pef91d16f7b)" style="fill: none; stroke: #c84b00; stroke-width: 2.6; stroke-linecap: square"/>
   </g>
   <g id="line2d_21">
    <path d="M 179.450458 137.74916 
L 179.450458 136.54542 
" clip-path="url(#pef91d16f7b)" style="fill: none; stroke: #c84b00; stroke-width: 2.6; stroke-linecap: square"/>
   </g>
   <g id="line2d_22">
    <path d="M 169.396 159.416469 
L 169.396 132.934202 
" clip-path="url(#pef91d16f7b)" style="fill: none; stroke: #c84b00; stroke-width: 2.6; stroke-linecap: square"/>
   </g>
   <g id="patch_3">
    <path d="M 48.7425 193.121172 
L 48.7425 24.597656 
" style="fill: none; stroke: #000000; stroke-width: 0.8; stroke-linejoin: miter; stroke-linecap: square"/>
   </g>
   <g id="patch_4">
    <path d="M 48.7425 193.121172 
L 350.37625 193.121172 
" style="fill: none; stroke: #000000; stroke-width: 0.8; stroke-linejoin: miter; stroke-linecap: square"/>
   </g>
   <g id="PathCollection_1">
    <defs>
     <path id="me1135115c3" d="M 0 4.743416 
C 1.257969 4.743416 2.464584 4.24362 3.354102 3.354102 
C 4.24362 2.464584 4.743416 1.257969 4.743416 0 
C 4.743416 -1.257969 4.24362 -2.464584 3.354102 -3.354102 
C 2.464584 -4.24362 1.257969 -4.743416 0 -4.743416 
C -1.257969 -4.743416 -2.464584 -4.24362 -3.354102 -3.354102 
C -4.24362 -2.464584 -4.743416 -1.257969 -4.743416 0 
C -4.743416 1.257969 -4.24362 2.464584 -3.354102 3.354102 
C -2.464584 4.24362 -1.257969 4.743416 0 4.743416 
z
" style="stroke: #0072b2"/>
    </defs>
    <g clip-path="url(#pef91d16f7b)">
     <use xlink:href="#me1135115c3" x="169.396" y="151.712537" style="fill: #0072b2; stroke: #0072b2"/>
     <use xlink:href="#me1135115c3" x="133.19995" y="120.896808" style="fill: #0072b2; stroke: #0072b2"/>
     <use xlink:href="#me1135115c3" x="143.254408" y="154.601511" style="fill: #0072b2; stroke: #0072b2"/>
     <use xlink:href="#me1135115c3" x="249.831667" y="169.046384" style="fill: #0072b2; stroke: #0072b2"/>
     <use xlink:href="#me1135115c3" x="76.894983" y="53.487402" style="fill: #0072b2; stroke: #0072b2"/>
     <use xlink:href="#me1135115c3" x="330.267333" y="166.638905" style="fill: #0072b2; stroke: #0072b2"/>
     <use xlink:href="#me1135115c3" x="72.8732" y="97.785012" style="fill: #0072b2; stroke: #0072b2"/>
     <use xlink:href="#me1135115c3" x="169.396" y="120.896808" style="fill: #0072b2; stroke: #0072b2"/>
     <use xlink:href="#me1135115c3" x="179.450458" y="137.74916" style="fill: #0072b2; stroke: #0072b2"/>
     <use xlink:href="#me1135115c3" x="169.396" y="159.416469" style="fill: #0072b2; stroke: #0072b2"/>
    </g>
   </g>
   <g id="text_14">
    <!-- Line A: RMSE 4.61 mpg -->
    <g transform="translate(101.577734 18.597656) scale(0.15 -0.15)">
     <defs>
      <path id="DejaVuSans-Bold-2f" d="M 588 4666 
L 1791 4666 
L 1791 909 
L 3903 909 
L 3903 0 
L 588 0 
L 588 4666 
z
" transform="scale(0.015625)"/>
      <path id="DejaVuSans-Bold-4c" d="M 538 3500 
L 1656 3500 
L 1656 0 
L 538 0 
L 538 3500 
z
M 538 4863 
L 1656 4863 
L 1656 3950 
L 538 3950 
L 538 4863 
z
" transform="scale(0.015625)"/>
      <path id="DejaVuSans-Bold-51" d="M 4056 2131 
L 4056 0 
L 2931 0 
L 2931 347 
L 2931 1631 
Q 2931 2084 2911 2256 
Q 2891 2428 2841 2509 
Q 2775 2619 2662 2680 
Q 2550 2741 2406 2741 
Q 2056 2741 1856 2470 
Q 1656 2200 1656 1722 
L 1656 0 
L 538 0 
L 538 3500 
L 1656 3500 
L 1656 2988 
Q 1909 3294 2193 3439 
Q 2478 3584 2822 3584 
Q 3428 3584 3742 3212 
Q 4056 2841 4056 2131 
z
" transform="scale(0.015625)"/>
      <path id="DejaVuSans-Bold-48" d="M 4031 1759 
L 4031 1441 
L 1416 1441 
Q 1456 1047 1700 850 
Q 1944 653 2381 653 
Q 2734 653 3104 758 
Q 3475 863 3866 1075 
L 3866 213 
Q 3469 63 3072 -14 
Q 2675 -91 2278 -91 
Q 1328 -91 801 392 
Q 275 875 275 1747 
Q 275 2603 792 3093 
Q 1309 3584 2216 3584 
Q 3041 3584 3536 3087 
Q 4031 2591 4031 1759 
z
M 2881 2131 
Q 2881 2450 2695 2645 
Q 2509 2841 2209 2841 
Q 1884 2841 1681 2658 
Q 1478 2475 1428 2131 
L 2881 2131 
z
" transform="scale(0.015625)"/>
      <path id="DejaVuSans-Bold-3" transform="scale(0.015625)"/>
      <path id="DejaVuSans-Bold-24" d="M 3419 850 
L 1538 850 
L 1241 0 
L 31 0 
L 1759 4666 
L 3194 4666 
L 4922 0 
L 3713 0 
L 3419 850 
z
M 1838 1716 
L 3116 1716 
L 2478 3572 
L 1838 1716 
z
" transform="scale(0.015625)"/>
      <path id="DejaVuSans-Bold-1d" d="M 716 3500 
L 1844 3500 
L 1844 2291 
L 716 2291 
L 716 3500 
z
M 716 1209 
L 1844 1209 
L 1844 0 
L 716 0 
L 716 1209 
z
" transform="scale(0.015625)"/>
      <path id="DejaVuSans-Bold-35" d="M 2297 2597 
Q 2675 2597 2839 2737 
Q 3003 2878 3003 3200 
Q 3003 3519 2839 3656 
Q 2675 3794 2297 3794 
L 1791 3794 
L 1791 2597 
L 2297 2597 
z
M 1791 1766 
L 1791 0 
L 588 0 
L 588 4666 
L 2425 4666 
Q 3347 4666 3776 4356 
Q 4206 4047 4206 3378 
Q 4206 2916 3982 2619 
Q 3759 2322 3309 2181 
Q 3556 2125 3751 1926 
Q 3947 1728 4147 1325 
L 4800 0 
L 3519 0 
L 2950 1159 
Q 2778 1509 2601 1637 
Q 2425 1766 2131 1766 
L 1791 1766 
z
" transform="scale(0.015625)"/>
      <path id="DejaVuSans-Bold-30" d="M 588 4666 
L 2119 4666 
L 3181 2169 
L 4250 4666 
L 5778 4666 
L 5778 0 
L 4641 0 
L 4641 3413 
L 3566 897 
L 2803 897 
L 1728 3413 
L 1728 0 
L 588 0 
L 588 4666 
z
" transform="scale(0.015625)"/>
      <path id="DejaVuSans-Bold-36" d="M 3834 4519 
L 3834 3531 
Q 3450 3703 3084 3790 
Q 2719 3878 2394 3878 
Q 1963 3878 1756 3759 
Q 1550 3641 1550 3391 
Q 1550 3203 1689 3098 
Q 1828 2994 2194 2919 
L 2706 2816 
Q 3484 2659 3812 2340 
Q 4141 2022 4141 1434 
Q 4141 663 3683 286 
Q 3225 -91 2284 -91 
Q 1841 -91 1394 -6 
Q 947 78 500 244 
L 500 1259 
Q 947 1022 1364 901 
Q 1781 781 2169 781 
Q 2563 781 2772 912 
Q 2981 1044 2981 1288 
Q 2981 1506 2839 1625 
Q 2697 1744 2272 1838 
L 1806 1941 
Q 1106 2091 782 2419 
Q 459 2747 459 3303 
Q 459 4000 909 4375 
Q 1359 4750 2203 4750 
Q 2588 4750 2994 4692 
Q 3400 4634 3834 4519 
z
" transform="scale(0.015625)"/>
      <path id="DejaVuSans-Bold-28" d="M 588 4666 
L 3834 4666 
L 3834 3756 
L 1791 3756 
L 1791 2888 
L 3713 2888 
L 3713 1978 
L 1791 1978 
L 1791 909 
L 3903 909 
L 3903 0 
L 588 0 
L 588 4666 
z
" transform="scale(0.015625)"/>
      <path id="DejaVuSans-Bold-17" d="M 2356 3675 
L 1038 1722 
L 2356 1722 
L 2356 3675 
z
M 2156 4666 
L 3494 4666 
L 3494 1722 
L 4159 1722 
L 4159 850 
L 3494 850 
L 3494 0 
L 2356 0 
L 2356 850 
L 288 850 
L 288 1881 
L 2156 4666 
z
" transform="scale(0.015625)"/>
      <path id="DejaVuSans-Bold-11" d="M 653 1209 
L 1778 1209 
L 1778 0 
L 653 0 
L 653 1209 
z
" transform="scale(0.015625)"/>
      <path id="DejaVuSans-Bold-19" d="M 2316 2303 
Q 2000 2303 1842 2098 
Q 1684 1894 1684 1484 
Q 1684 1075 1842 870 
Q 2000 666 2316 666 
Q 2634 666 2792 870 
Q 2950 1075 2950 1484 
Q 2950 1894 2792 2098 
Q 2634 2303 2316 2303 
z
M 3803 4544 
L 3803 3681 
Q 3506 3822 3243 3889 
Q 2981 3956 2731 3956 
Q 2194 3956 1894 3657 
Q 1594 3359 1544 2772 
Q 1750 2925 1990 3001 
Q 2231 3078 2516 3078 
Q 3231 3078 3670 2659 
Q 4109 2241 4109 1563 
Q 4109 813 3618 361 
Q 3128 -91 2303 -91 
Q 1394 -91 895 523 
Q 397 1138 397 2266 
Q 397 3422 980 4083 
Q 1563 4744 2578 4744 
Q 2900 4744 3203 4694 
Q 3506 4644 3803 4544 
z
" transform="scale(0.015625)"/>
      <path id="DejaVuSans-Bold-14" d="M 750 831 
L 1813 831 
L 1813 3847 
L 722 3622 
L 722 4441 
L 1806 4666 
L 2950 4666 
L 2950 831 
L 4013 831 
L 4013 0 
L 750 0 
L 750 831 
z
" transform="scale(0.015625)"/>
      <path id="DejaVuSans-Bold-50" d="M 3781 2919 
Q 3994 3244 4286 3414 
Q 4578 3584 4928 3584 
Q 5531 3584 5847 3212 
Q 6163 2841 6163 2131 
L 6163 0 
L 5038 0 
L 5038 1825 
Q 5041 1866 5042 1909 
Q 5044 1953 5044 2034 
Q 5044 2406 4934 2573 
Q 4825 2741 4581 2741 
Q 4263 2741 4089 2478 
Q 3916 2216 3909 1719 
L 3909 0 
L 2784 0 
L 2784 1825 
Q 2784 2406 2684 2573 
Q 2584 2741 2328 2741 
Q 2006 2741 1831 2477 
Q 1656 2213 1656 1722 
L 1656 0 
L 531 0 
L 531 3500 
L 1656 3500 
L 1656 2988 
Q 1863 3284 2130 3434 
Q 2397 3584 2719 3584 
Q 3081 3584 3359 3409 
Q 3638 3234 3781 2919 
z
" transform="scale(0.015625)"/>
      <path id="DejaVuSans-Bold-53" d="M 1656 506 
L 1656 -1331 
L 538 -1331 
L 538 3500 
L 1656 3500 
L 1656 2988 
Q 1888 3294 2169 3439 
Q 2450 3584 2816 3584 
Q 3463 3584 3878 3070 
Q 4294 2556 4294 1747 
Q 4294 938 3878 423 
Q 3463 -91 2816 -91 
Q 2450 -91 2169 54 
Q 1888 200 1656 506 
z
M 2400 2772 
Q 2041 2772 1848 2508 
Q 1656 2244 1656 1747 
Q 1656 1250 1848 986 
Q 2041 722 2400 722 
Q 2759 722 2948 984 
Q 3138 1247 3138 1747 
Q 3138 2247 2948 2509 
Q 2759 2772 2400 2772 
z
" transform="scale(0.015625)"/>
      <path id="DejaVuSans-Bold-4a" d="M 2919 594 
Q 2688 288 2409 144 
Q 2131 0 1766 0 
Q 1125 0 706 504 
Q 288 1009 288 1791 
Q 288 2575 706 3076 
Q 1125 3578 1766 3578 
Q 2131 3578 2409 3434 
Q 2688 3291 2919 2981 
L 2919 3500 
L 4044 3500 
L 4044 353 
Q 4044 -491 3511 -936 
Q 2978 -1381 1966 -1381 
Q 1638 -1381 1331 -1331 
Q 1025 -1281 716 -1178 
L 716 -306 
Q 1009 -475 1290 -558 
Q 1572 -641 1856 -641 
Q 2406 -641 2662 -400 
Q 2919 -159 2919 353 
L 2919 594 
z
M 2181 2772 
Q 1834 2772 1640 2515 
Q 1447 2259 1447 1791 
Q 1447 1309 1634 1061 
Q 1822 813 2181 813 
Q 2531 813 2725 1069 
Q 2919 1325 2919 1791 
Q 2919 2259 2725 2515 
Q 2531 2772 2181 2772 
z
" transform="scale(0.015625)"/>
     </defs>
     <use xlink:href="#DejaVuSans-Bold-2f"/>
     <use xlink:href="#DejaVuSans-Bold-4c" transform="translate(63.71875 0)"/>
     <use xlink:href="#DejaVuSans-Bold-51" transform="translate(98 0)"/>
     <use xlink:href="#DejaVuSans-Bold-48" transform="translate(169.1875 0)"/>
     <use xlink:href="#DejaVuSans-Bold-3" transform="translate(237.015625 0)"/>
     <use xlink:href="#DejaVuSans-Bold-24" transform="translate(271.828125 0)"/>
     <use xlink:href="#DejaVuSans-Bold-1d" transform="translate(351.078125 0)"/>
     <use xlink:href="#DejaVuSans-Bold-3" transform="translate(391.0625 0)"/>
     <use xlink:href="#DejaVuSans-Bold-35" transform="translate(425.875 0)"/>
     <use xlink:href="#DejaVuSans-Bold-30" transform="translate(502.875 0)"/>
     <use xlink:href="#DejaVuSans-Bold-36" transform="translate(602.390625 0)"/>
     <use xlink:href="#DejaVuSans-Bold-28" transform="translate(674.40625 0)"/>
     <use xlink:href="#DejaVuSans-Bold-3" transform="translate(742.71875 0)"/>
     <use xlink:href="#DejaVuSans-Bold-17" transform="translate(777.53125 0)"/>
     <use xlink:href="#DejaVuSans-Bold-11" transform="translate(847.109375 0)"/>
     <use xlink:href="#DejaVuSans-Bold-19" transform="translate(885.09375 0)"/>
     <use xlink:href="#DejaVuSans-Bold-14" transform="translate(954.671875 0)"/>
     <use xlink:href="#DejaVuSans-Bold-3" transform="translate(1024.25 0)"/>
     <use xlink:href="#DejaVuSans-Bold-50" transform="translate(1059.0625 0)"/>
     <use xlink:href="#DejaVuSans-Bold-53" transform="translate(1163.265625 0)"/>
     <use xlink:href="#DejaVuSans-Bold-4a" transform="translate(1234.84375 0)"/>
    </g>
   </g>
  </g>
  <g id="axes_2">
   <g id="patch_5">
    <path d="M 385.088125 193.121172 
L 686.721875 193.121172 
L 686.721875 24.597656 
L 385.088125 24.597656 
z
" style="fill: #ffffff"/>
   </g>
   <g id="matplotlib.axis_3">
    <g id="xtick_8">
     <g id="line2d_23">
      <g>
       <use xlink:href="#mbf195e2ab2" x="385.088125" y="193.121172" style="stroke: #000000; stroke-width: 0.8"/>
      </g>
     </g>
     <g id="text_15">
      <!-- 50 -->
      <g transform="translate(376.816875 209.998125) scale(0.13 -0.13)">
       <use xlink:href="#DejaVuSans-18"/>
       <use xlink:href="#DejaVuSans-13" transform="translate(63.625 0)"/>
      </g>
     </g>
    </g>
    <g id="xtick_9">
     <g id="line2d_24">
      <g>
       <use xlink:href="#mbf195e2ab2" x="435.360417" y="193.121172" style="stroke: #000000; stroke-width: 0.8"/>
      </g>
     </g>
     <g id="text_16">
      <!-- 75 -->
      <g transform="translate(427.089167 209.998125) scale(0.13 -0.13)">
       <use xlink:href="#DejaVuSans-1a"/>
       <use xlink:href="#DejaVuSans-18" transform="translate(63.625 0)"/>
      </g>
     </g>
    </g>
    <g id="xtick_10">
     <g id="line2d_25">
      <g>
       <use xlink:href="#mbf195e2ab2" x="485.632708" y="193.121172" style="stroke: #000000; stroke-width: 0.8"/>
      </g>
     </g>
     <g id="text_17">
      <!-- 100 -->
      <g transform="translate(473.225833 209.998125) scale(0.13 -0.13)">
       <use xlink:href="#DejaVuSans-14"/>
       <use xlink:href="#DejaVuSans-13" transform="translate(63.625 0)"/>
       <use xlink:href="#DejaVuSans-13" transform="translate(127.25 0)"/>
      </g>
     </g>
    </g>
    <g id="xtick_11">
     <g id="line2d_26">
      <g>
       <use xlink:href="#mbf195e2ab2" x="535.905" y="193.121172" style="stroke: #000000; stroke-width: 0.8"/>
      </g>
     </g>
     <g id="text_18">
      <!-- 125 -->
      <g transform="translate(523.498125 209.998125) scale(0.13 -0.13)">
       <use xlink:href="#DejaVuSans-14"/>
       <use xlink:href="#DejaVuSans-15" transform="translate(63.625 0)"/>
       <use xlink:href="#DejaVuSans-18" transform="translate(127.25 0)"/>
      </g>
     </g>
    </g>
    <g id="xtick_12">
     <g id="line2d_27">
      <g>
       <use xlink:href="#mbf195e2ab2" x="586.177292" y="193.121172" style="stroke: #000000; stroke-width: 0.8"/>
      </g>
     </g>
     <g id="text_19">
      <!-- 150 -->
      <g transform="translate(573.770417 209.998125) scale(0.13 -0.13)">
       <use xlink:href="#DejaVuSans-14"/>
       <use xlink:href="#DejaVuSans-18" transform="translate(63.625 0)"/>
       <use xlink:href="#DejaVuSans-13" transform="translate(127.25 0)"/>
      </g>
     </g>
    </g>
    <g id="xtick_13">
     <g id="line2d_28">
      <g>
       <use xlink:href="#mbf195e2ab2" x="636.449583" y="193.121172" style="stroke: #000000; stroke-width: 0.8"/>
      </g>
     </g>
     <g id="text_20">
      <!-- 175 -->
      <g transform="translate(624.042708 209.998125) scale(0.13 -0.13)">
       <use xlink:href="#DejaVuSans-14"/>
       <use xlink:href="#DejaVuSans-1a" transform="translate(63.625 0)"/>
       <use xlink:href="#DejaVuSans-18" transform="translate(127.25 0)"/>
      </g>
     </g>
    </g>
    <g id="xtick_14">
     <g id="line2d_29">
      <g>
       <use xlink:href="#mbf195e2ab2" x="686.721875" y="193.121172" style="stroke: #000000; stroke-width: 0.8"/>
      </g>
     </g>
     <g id="text_21">
      <!-- 200 -->
      <g transform="translate(674.315 209.998125) scale(0.13 -0.13)">
       <use xlink:href="#DejaVuSans-15"/>
       <use xlink:href="#DejaVuSans-13" transform="translate(63.625 0)"/>
       <use xlink:href="#DejaVuSans-13" transform="translate(127.25 0)"/>
      </g>
     </g>
    </g>
    <g id="text_22">
     <!-- Horsepower (hp) -->
     <g transform="translate(477.322656 227.758984) scale(0.14 -0.14)">
      <use xlink:href="#DejaVuSans-2b"/>
      <use xlink:href="#DejaVuSans-52" transform="translate(75.203125 0)"/>
      <use xlink:href="#DejaVuSans-55" transform="translate(136.390625 0)"/>
      <use xlink:href="#DejaVuSans-56" transform="translate(177.5 0)"/>
      <use xlink:href="#DejaVuSans-48" transform="translate(229.59375 0)"/>
      <use xlink:href="#DejaVuSans-53" transform="translate(291.125 0)"/>
      <use xlink:href="#DejaVuSans-52" transform="translate(354.609375 0)"/>
      <use xlink:href="#DejaVuSans-5a" transform="translate(415.796875 0)"/>
      <use xlink:href="#DejaVuSans-48" transform="translate(497.578125 0)"/>
      <use xlink:href="#DejaVuSans-55" transform="translate(559.109375 0)"/>
      <use xlink:href="#DejaVuSans-3" transform="translate(600.21875 0)"/>
      <use xlink:href="#DejaVuSans-b" transform="translate(632 0)"/>
      <use xlink:href="#DejaVuSans-4b" transform="translate(671.015625 0)"/>
      <use xlink:href="#DejaVuSans-53" transform="translate(734.390625 0)"/>
      <use xlink:href="#DejaVuSans-c" transform="translate(797.875 0)"/>
     </g>
    </g>
   </g>
   <g id="matplotlib.axis_4">
    <g id="ytick_5">
     <g id="line2d_30">
      <g>
       <use xlink:href="#m50f8372c84" x="385.088125" y="193.121172" style="stroke: #000000; stroke-width: 0.8"/>
      </g>
     </g>
    </g>
    <g id="ytick_6">
     <g id="line2d_31">
      <g>
       <use xlink:href="#m50f8372c84" x="385.088125" y="144.971596" style="stroke: #000000; stroke-width: 0.8"/>
      </g>
     </g>
    </g>
    <g id="ytick_7">
     <g id="line2d_32">
      <g>
       <use xlink:href="#m50f8372c84" x="385.088125" y="96.82202" style="stroke: #000000; stroke-width: 0.8"/>
      </g>
     </g>
    </g>
    <g id="ytick_8">
     <g id="line2d_33">
      <g>
       <use xlink:href="#m50f8372c84" x="385.088125" y="48.672444" style="stroke: #000000; stroke-width: 0.8"/>
      </g>
     </g>
    </g>
   </g>
   <g id="line2d_34">
    <path d="M 395.142583 106.211187 
L 676.667417 166.879653 
" clip-path="url(#p137bc0e6e0)" style="fill: none; stroke: #00795a; stroke-width: 3; stroke-linecap: square"/>
   </g>
   <g id="line2d_35">
    <path d="M 505.741625 151.712537 
L 505.741625 130.045227 
" clip-path="url(#p137bc0e6e0)" style="fill: none; stroke: #c84b00; stroke-width: 2.6; stroke-linecap: square"/>
   </g>
   <g id="line2d_36">
    <path d="M 469.545575 120.896808 
L 469.545575 122.244996 
" clip-path="url(#p137bc0e6e0)" style="fill: none; stroke: #c84b00; stroke-width: 2.6; stroke-linecap: square"/>
   </g>
   <g id="line2d_37">
    <path d="M 479.600033 154.601511 
L 479.600033 124.411727 
" clip-path="url(#p137bc0e6e0)" style="fill: none; stroke: #c84b00; stroke-width: 2.6; stroke-linecap: square"/>
   </g>
   <g id="line2d_38">
    <path d="M 586.177292 169.046384 
L 586.177292 147.379075 
" clip-path="url(#p137bc0e6e0)" style="fill: none; stroke: #c84b00; stroke-width: 2.6; stroke-linecap: square"/>
   </g>
   <g id="line2d_39">
    <path d="M 413.240608 53.487402 
L 413.240608 110.111303 
" clip-path="url(#p137bc0e6e0)" style="fill: none; stroke: #c84b00; stroke-width: 2.6; stroke-linecap: square"/>
   </g>
   <g id="line2d_40">
    <path d="M 666.612958 166.638905 
L 666.612958 164.712922 
" clip-path="url(#p137bc0e6e0)" style="fill: none; stroke: #c84b00; stroke-width: 2.6; stroke-linecap: square"/>
   </g>
   <g id="line2d_41">
    <path d="M 409.218825 97.785012 
L 409.218825 109.244611 
" clip-path="url(#p137bc0e6e0)" style="fill: none; stroke: #c84b00; stroke-width: 2.6; stroke-linecap: square"/>
   </g>
   <g id="line2d_42">
    <path d="M 505.741625 120.896808 
L 505.741625 130.045227 
" clip-path="url(#p137bc0e6e0)" style="fill: none; stroke: #c84b00; stroke-width: 2.6; stroke-linecap: square"/>
   </g>
   <g id="line2d_43">
    <path d="M 515.796083 137.74916 
L 515.796083 132.211958 
" clip-path="url(#p137bc0e6e0)" style="fill: none; stroke: #c84b00; stroke-width: 2.6; stroke-linecap: square"/>
   </g>
   <g id="line2d_44">
    <path d="M 505.741625 159.416469 
L 505.741625 130.045227 
" clip-path="url(#p137bc0e6e0)" style="fill: none; stroke: #c84b00; stroke-width: 2.6; stroke-linecap: square"/>
   </g>
   <g id="patch_6">
    <path d="M 385.088125 193.121172 
L 385.088125 24.597656 
" style="fill: none; stroke: #000000; stroke-width: 0.8; stroke-linejoin: miter; stroke-linecap: square"/>
   </g>
   <g id="patch_7">
    <path d="M 385.088125 193.121172 
L 686.721875 193.121172 
" style="fill: none; stroke: #000000; stroke-width: 0.8; stroke-linejoin: miter; stroke-linecap: square"/>
   </g>
   <g id="PathCollection_2">
    <g clip-path="url(#p137bc0e6e0)">
     <use xlink:href="#me1135115c3" x="505.741625" y="151.712537" style="fill: #0072b2; stroke: #0072b2"/>
     <use xlink:href="#me1135115c3" x="469.545575" y="120.896808" style="fill: #0072b2; stroke: #0072b2"/>
     <use xlink:href="#me1135115c3" x="479.600033" y="154.601511" style="fill: #0072b2; stroke: #0072b2"/>
     <use xlink:href="#me1135115c3" x="586.177292" y="169.046384" style="fill: #0072b2; stroke: #0072b2"/>
     <use xlink:href="#me1135115c3" x="413.240608" y="53.487402" style="fill: #0072b2; stroke: #0072b2"/>
     <use xlink:href="#me1135115c3" x="666.612958" y="166.638905" style="fill: #0072b2; stroke: #0072b2"/>
     <use xlink:href="#me1135115c3" x="409.218825" y="97.785012" style="fill: #0072b2; stroke: #0072b2"/>
     <use xlink:href="#me1135115c3" x="505.741625" y="120.896808" style="fill: #0072b2; stroke: #0072b2"/>
     <use xlink:href="#me1135115c3" x="515.796083" y="137.74916" style="fill: #0072b2; stroke: #0072b2"/>
     <use xlink:href="#me1135115c3" x="505.741625" y="159.416469" style="fill: #0072b2; stroke: #0072b2"/>
    </g>
   </g>
   <g id="text_23">
    <!-- Line B: RMSE 5.16 mpg -->
    <g transform="translate(438.150703 18.597656) scale(0.15 -0.15)">
     <defs>
      <path id="DejaVuSans-Bold-25" d="M 2456 2859 
Q 2741 2859 2887 2984 
Q 3034 3109 3034 3353 
Q 3034 3594 2887 3720 
Q 2741 3847 2456 3847 
L 1791 3847 
L 1791 2859 
L 2456 2859 
z
M 2497 819 
Q 2859 819 3042 972 
Q 3225 1125 3225 1434 
Q 3225 1738 3044 1889 
Q 2863 2041 2497 2041 
L 1791 2041 
L 1791 819 
L 2497 819 
z
M 3616 2497 
Q 4003 2384 4215 2081 
Q 4428 1778 4428 1338 
Q 4428 663 3972 331 
Q 3516 0 2584 0 
L 588 0 
L 588 4666 
L 2394 4666 
Q 3366 4666 3802 4372 
Q 4238 4078 4238 3431 
Q 4238 3091 4078 2852 
Q 3919 2613 3616 2497 
z
" transform="scale(0.015625)"/>
      <path id="DejaVuSans-Bold-18" d="M 678 4666 
L 3669 4666 
L 3669 3781 
L 1638 3781 
L 1638 3059 
Q 1775 3097 1914 3117 
Q 2053 3138 2203 3138 
Q 3056 3138 3531 2711 
Q 4006 2284 4006 1522 
Q 4006 766 3489 337 
Q 2972 -91 2053 -91 
Q 1656 -91 1267 -14 
Q 878 63 494 219 
L 494 1166 
Q 875 947 1217 837 
Q 1559 728 1863 728 
Q 2300 728 2551 942 
Q 2803 1156 2803 1522 
Q 2803 1891 2551 2103 
Q 2300 2316 1863 2316 
Q 1603 2316 1309 2248 
Q 1016 2181 678 2041 
L 678 4666 
z
" transform="scale(0.015625)"/>
     </defs>
     <use xlink:href="#DejaVuSans-Bold-2f"/>
     <use xlink:href="#DejaVuSans-Bold-4c" transform="translate(63.71875 0)"/>
     <use xlink:href="#DejaVuSans-Bold-51" transform="translate(98 0)"/>
     <use xlink:href="#DejaVuSans-Bold-48" transform="translate(169.1875 0)"/>
     <use xlink:href="#DejaVuSans-Bold-3" transform="translate(237.015625 0)"/>
     <use xlink:href="#DejaVuSans-Bold-25" transform="translate(271.828125 0)"/>
     <use xlink:href="#DejaVuSans-Bold-1d" transform="translate(348.046875 0)"/>
     <use xlink:href="#DejaVuSans-Bold-3" transform="translate(388.03125 0)"/>
     <use xlink:href="#DejaVuSans-Bold-35" transform="translate(422.84375 0)"/>
     <use xlink:href="#DejaVuSans-Bold-30" transform="translate(499.84375 0)"/>
     <use xlink:href="#DejaVuSans-Bold-36" transform="translate(599.359375 0)"/>
     <use xlink:href="#DejaVuSans-Bold-28" transform="translate(671.375 0)"/>
     <use xlink:href="#DejaVuSans-Bold-3" transform="translate(739.6875 0)"/>
     <use xlink:href="#DejaVuSans-Bold-18" transform="translate(774.5 0)"/>
     <use xlink:href="#DejaVuSans-Bold-11" transform="translate(844.078125 0)"/>
     <use xlink:href="#DejaVuSans-Bold-14" transform="translate(882.0625 0)"/>
     <use xlink:href="#DejaVuSans-Bold-19" transform="translate(951.640625 0)"/>
     <use xlink:href="#DejaVuSans-Bold-3" transform="translate(1021.21875 0)"/>
     <use xlink:href="#DejaVuSans-Bold-50" transform="translate(1056.03125 0)"/>
     <use xlink:href="#DejaVuSans-Bold-53" transform="translate(1160.234375 0)"/>
     <use xlink:href="#DejaVuSans-Bold-4a" transform="translate(1231.8125 0)"/>
    </g>
   </g>
  </g>
 </g>
 <defs>
  <clipPath id="pef91d16f7b">
   <rect x="48.7425" y="24.597656" width="301.63375" height="168.523516"/>
  </clipPath>
  <clipPath id="p137bc0e6e0">
   <rect x="385.088125" y="24.597656" width="301.63375" height="168.523516"/>
  </clipPath>
 </defs>
</svg>
